# xmcd
# 
# Track frame offsets:
#     150
#     13550
#     25665
#     36715
#     50087
#     60664
#     72112
#     84425
#     95977
#     106612
#     121462
#     132510
#     145680
#     161737
#     174432
# 
# Disc length: 2571
# 
# Revision: 16
# Processed by: cddbd v1.5.2PL0 Copyright (c) Steve Scherf et al.
# Submitted via: fre:ac v1.0.17
# 
DISCID=cf0a090f
DTITLE=Various Artist - Classic Country - 1970-1974 D2
DYEAR=2010
DGENRE=Country
TTITLE0=Billy Swan - I Can Help
TTITLE1=Marie Osmond - Paper Roses
TTITLE2=Conway Twitty - Hello Darlin'
TTITLE3=Tammy Wynette - We're Gonna Hold On
TTITLE4=Sonny James - Empty Arms
TTITLE5=Donna Fargo - The Happiest Girl In the Whole U.S.A.
TTITLE6=Charlie Rich - The Most Beautiful Girl
TTITLE7=Sammi Smith - Help Me Make It Through the Night
TTITLE8=Jerry Reed - When You're Hot, You're Hot
TTITLE9=Jeanne Pruett - Satin Sheets
TTITLE10=Conway Twitty - Lead Me On
TTITLE11=Tanya Tucker - Delta Dawn
TTITLE12=Marty Robbins - My Woman, My Woman, My Wife
TTITLE13=Lynn Anderson - Rose Garden
TTITLE14=Johnny Cash - Sunday Morning Coming Down
EXTD=
EXTT0=
EXTT1=
EXTT2=
EXTT3=
EXTT4=
EXTT5=
EXTT6=
EXTT7=
EXTT8=
EXTT9=
EXTT10=
EXTT11=
EXTT12=
EXTT13=
EXTT14=
PLAYORDER=
